<svg xmlns="http://www.w3.org/2000/svg" xmlns:xlink="http://www.w3.org/1999/xlink" width="500" zoomAndPan="magnify" viewBox="0 0 375 374.999991" height="500" preserveAspectRatio="xMidYMid meet" version="1.0"><defs><g/><clipPath id="be5ed042d2"><path d="M 58.039062 48.722656 L 332 48.722656 L 332 270.910156 L 58.039062 270.910156 Z M 58.039062 48.722656 " clip-rule="nonzero"/></clipPath><clipPath id="e9df1da0c6"><path d="M 75.289062 48.722656 L 314.488281 48.722656 C 324.015625 48.722656 331.738281 56.445312 331.738281 65.972656 L 331.738281 253.660156 C 331.738281 263.1875 324.015625 270.910156 314.488281 270.910156 L 75.289062 270.910156 C 65.761719 270.910156 58.039062 263.1875 58.039062 253.660156 L 58.039062 65.972656 C 58.039062 56.445312 65.761719 48.722656 75.289062 48.722656 Z M 75.289062 48.722656 " clip-rule="nonzero"/></clipPath><clipPath id="b15f2c0401"><path d="M 63.175781 57.308594 L 327 57.308594 L 327 230.519531 L 63.175781 230.519531 Z M 63.175781 57.308594 " clip-rule="nonzero"/></clipPath><clipPath id="3fd1e1d341"><path d="M 80.425781 57.308594 L 309.351562 57.308594 C 318.878906 57.308594 326.601562 65.03125 326.601562 74.558594 L 326.601562 213.269531 C 326.601562 222.792969 318.878906 230.519531 309.351562 230.519531 L 80.425781 230.519531 C 70.898438 230.519531 63.175781 222.792969 63.175781 213.269531 L 63.175781 74.558594 C 63.175781 65.03125 70.898438 57.308594 80.425781 57.308594 Z M 80.425781 57.308594 " clip-rule="nonzero"/></clipPath><clipPath id="3a2b271a52"><path d="M 144.5625 270.910156 L 243.296875 270.910156 L 243.296875 312.421875 L 144.5625 312.421875 Z M 144.5625 270.910156 " clip-rule="nonzero"/></clipPath><clipPath id="bc8c38f647"><path d="M 153.324219 270.910156 L 236.453125 270.910156 L 236.453125 312.421875 L 153.324219 312.421875 Z M 153.324219 270.910156 " clip-rule="nonzero"/></clipPath><clipPath id="9545ec7a40"><path d="M 111.507812 298.5625 L 276.390625 298.5625 L 276.390625 326.277344 L 111.507812 326.277344 Z M 111.507812 298.5625 " clip-rule="nonzero"/></clipPath><clipPath id="b095553a9a"><path d="M 235.140625 298.5625 C 257.902344 298.5625 276.351562 304.769531 276.351562 312.421875 C 276.351562 320.074219 257.902344 326.277344 235.140625 326.277344 L 152.71875 326.277344 C 129.960938 326.277344 111.507812 320.074219 111.507812 312.421875 C 111.507812 304.769531 129.960938 298.5625 152.71875 298.5625 Z M 235.140625 298.5625 " clip-rule="nonzero"/></clipPath><clipPath id="aaf784ccad"><path d="M 180.035156 236.820312 L 207.824219 236.820312 L 207.824219 264.605469 L 180.035156 264.605469 Z M 180.035156 236.820312 " clip-rule="nonzero"/></clipPath><clipPath id="342aed7ba6"><path d="M 193.929688 236.820312 C 186.257812 236.820312 180.035156 243.039062 180.035156 250.714844 C 180.035156 258.386719 186.257812 264.605469 193.929688 264.605469 C 201.605469 264.605469 207.824219 258.386719 207.824219 250.714844 C 207.824219 243.039062 201.605469 236.820312 193.929688 236.820312 Z M 193.929688 236.820312 " clip-rule="nonzero"/></clipPath><clipPath id="e55ffae90a"><path d="M 182.761719 239.542969 L 205.101562 239.542969 L 205.101562 261.882812 L 182.761719 261.882812 Z M 182.761719 239.542969 " clip-rule="nonzero"/></clipPath><clipPath id="162038b9a5"><path d="M 193.929688 239.542969 C 187.761719 239.542969 182.761719 244.542969 182.761719 250.714844 C 182.761719 256.882812 187.761719 261.882812 193.929688 261.882812 C 200.101562 261.882812 205.101562 256.882812 205.101562 250.714844 C 205.101562 244.542969 200.101562 239.542969 193.929688 239.542969 Z M 193.929688 239.542969 " clip-rule="nonzero"/></clipPath></defs><g clip-path="url(#be5ed042d2)"><g clip-path="url(#e9df1da0c6)"><path fill="#ffbd59" d="M 58.039062 48.722656 L 331.433594 48.722656 L 331.433594 270.910156 L 58.039062 270.910156 Z M 58.039062 48.722656 " fill-opacity="1" fill-rule="nonzero"/></g></g><g clip-path="url(#b15f2c0401)"><g clip-path="url(#3fd1e1d341)"><path fill="#ffffff" d="M 63.175781 57.308594 L 326.375 57.308594 L 326.375 230.519531 L 63.175781 230.519531 Z M 63.175781 57.308594 " fill-opacity="1" fill-rule="nonzero"/></g></g><g clip-path="url(#3a2b271a52)"><path fill="#ffbd59" d="M 144.5625 270.910156 L 243.316406 270.910156 L 243.316406 312.421875 L 144.5625 312.421875 Z M 144.5625 270.910156 " fill-opacity="1" fill-rule="nonzero"/></g><g clip-path="url(#bc8c38f647)"><path fill="#ffffff" d="M 153.324219 270.910156 L 236.507812 270.910156 L 236.507812 312.421875 L 153.324219 312.421875 Z M 153.324219 270.910156 " fill-opacity="1" fill-rule="nonzero"/></g><g clip-path="url(#9545ec7a40)"><g clip-path="url(#b095553a9a)"><path fill="#ffbd59" d="M 111.507812 298.5625 L 276.390625 298.5625 L 276.390625 326.277344 L 111.507812 326.277344 Z M 111.507812 298.5625 " fill-opacity="1" fill-rule="nonzero"/></g></g><g clip-path="url(#aaf784ccad)"><g clip-path="url(#342aed7ba6)"><path fill="#ffffff" d="M 180.035156 236.820312 L 207.824219 236.820312 L 207.824219 264.605469 L 180.035156 264.605469 Z M 180.035156 236.820312 " fill-opacity="1" fill-rule="nonzero"/></g></g><g clip-path="url(#e55ffae90a)"><g clip-path="url(#162038b9a5)"><path fill="#ffbd59" d="M 182.761719 239.542969 L 205.101562 239.542969 L 205.101562 261.882812 L 182.761719 261.882812 Z M 182.761719 239.542969 " fill-opacity="1" fill-rule="nonzero"/></g></g><path stroke-linecap="round" transform="matrix(0.75, -0.000000000000000279, 0.000000000000000279, 0.75, 111.509623, 80.005286)" fill="none" stroke-linejoin="miter" d="M 3.997587 3.998161 L 247.289269 3.998161 " stroke="#ffbd59" stroke-width="8" stroke-opacity="1" stroke-miterlimit="4"/><path stroke-linecap="round" transform="matrix(0.75, 0, 0, 0.75, 110.226172, 210.959912)" fill="none" stroke-linejoin="miter" d="M 4.00052 4.001368 L 249.000536 4.001368 " stroke="#ffbd59" stroke-width="8" stroke-opacity="1" stroke-miterlimit="4"/><g fill="#ffbd59" fill-opacity="1"><g transform="translate(91.888328, 166.54854)"><g><path d="M 26.28125 1 C 21.96875 1 18.257812 0.132812 15.15625 -1.59375 C 12.0625 -3.320312 9.671875 -5.785156 7.984375 -8.984375 C 6.304688 -12.179688 5.46875 -16.003906 5.46875 -20.453125 L 5.46875 -49.703125 L 16.765625 -49.703125 L 16.765625 -21.234375 C 16.765625 -13.566406 19.9375 -9.734375 26.28125 -9.734375 C 32.625 -9.734375 35.796875 -13.566406 35.796875 -21.234375 L 35.796875 -49.703125 L 47.078125 -49.703125 L 47.078125 -20.453125 C 47.078125 -16.003906 46.238281 -12.179688 44.5625 -8.984375 C 42.882812 -5.785156 40.492188 -3.320312 37.390625 -1.59375 C 34.285156 0.132812 30.582031 1 26.28125 1 Z M 26.28125 1 "/></g></g></g><g fill="#ffbd59" fill-opacity="1"><g transform="translate(144.434219, 166.54854)"><g><path d="M 5.96875 0 L 5.96875 -49.703125 L 17.25 -49.703125 L 17.25 0 Z M 5.96875 0 "/></g></g></g><g fill="#ffbd59" fill-opacity="1"><g transform="translate(167.653813, 166.54854)"><g><path d="M 5.328125 4.546875 L 24.421875 -54.25 L 34.9375 -54.25 L 15.765625 4.546875 Z M 5.328125 4.546875 "/></g></g></g><g fill="#ffbd59" fill-opacity="1"><g transform="translate(207.915325, 166.54854)"><g><path d="M 26.28125 1 C 21.96875 1 18.257812 0.132812 15.15625 -1.59375 C 12.0625 -3.320312 9.671875 -5.785156 7.984375 -8.984375 C 6.304688 -12.179688 5.46875 -16.003906 5.46875 -20.453125 L 5.46875 -49.703125 L 16.765625 -49.703125 L 16.765625 -21.234375 C 16.765625 -13.566406 19.9375 -9.734375 26.28125 -9.734375 C 32.625 -9.734375 35.796875 -13.566406 35.796875 -21.234375 L 35.796875 -49.703125 L 47.078125 -49.703125 L 47.078125 -20.453125 C 47.078125 -16.003906 46.238281 -12.179688 44.5625 -8.984375 C 42.882812 -5.785156 40.492188 -3.320312 37.390625 -1.59375 C 34.285156 0.132812 30.582031 1 26.28125 1 Z M 26.28125 1 "/></g></g></g><g fill="#ffbd59" fill-opacity="1"><g transform="translate(260.461216, 166.54854)"><g><path d="M 1.921875 0 L 18.8125 -25.421875 L 2.703125 -49.703125 L 15.625 -49.703125 L 21.59375 -40.484375 L 26.140625 -33.59375 L 36.71875 -49.703125 L 49.5625 -49.703125 L 33.515625 -25.5 L 50.421875 0 L 37.140625 0 L 30.328125 -10.515625 L 26.203125 -16.828125 L 22.015625 -10.515625 L 15.203125 0 Z M 1.921875 0 "/></g></g></g></svg>